<mxfile host="Electron" modified="2024-04-01T09:48:20.762Z" agent="Mozilla/5.0 (Windows NT 10.0; Win64; x64) AppleWebKit/537.36 (KHTML, like Gecko) draw.io/21.1.2 Chrome/106.0.5249.199 Electron/21.4.3 Safari/537.36" etag="v0CjKdGVKG3dkCfl7Y2z" version="21.1.2" type="device">
  <diagram name="Page-1" id="iO0Yo7KRIeubO_wH9Yut">
    <mxGraphModel dx="1668" dy="971" grid="1" gridSize="10" guides="1" tooltips="1" connect="1" arrows="1" fold="1" page="1" pageScale="1" pageWidth="850" pageHeight="1100" math="0" shadow="0">
      <root>
        <mxCell id="0" />
        <mxCell id="1" parent="0" />
        <mxCell id="j_rDPpbYkYHrIjTHlHjP-4" style="edgeStyle=orthogonalEdgeStyle;rounded=0;orthogonalLoop=1;jettySize=auto;html=1;exitX=1;exitY=0.5;exitDx=0;exitDy=0;entryX=0;entryY=0.5;entryDx=0;entryDy=0;" parent="1" source="j_rDPpbYkYHrIjTHlHjP-1" target="qEgH979iWxqcsZPiDeU4-3" edge="1">
          <mxGeometry relative="1" as="geometry">
            <mxPoint x="310" y="400" as="targetPoint" />
          </mxGeometry>
        </mxCell>
        <mxCell id="j_rDPpbYkYHrIjTHlHjP-1" value="&lt;b&gt;frontend&lt;/b&gt;&lt;br&gt;Nextjs" style="rounded=1;whiteSpace=wrap;html=1;fillColor=#dae8fc;strokeColor=#6c8ebf;" parent="1" vertex="1">
          <mxGeometry x="50" y="370" width="120" height="60" as="geometry" />
        </mxCell>
        <mxCell id="qEgH979iWxqcsZPiDeU4-11" style="edgeStyle=orthogonalEdgeStyle;rounded=0;orthogonalLoop=1;jettySize=auto;html=1;exitX=0.5;exitY=0;exitDx=0;exitDy=0;entryX=0;entryY=0.5;entryDx=0;entryDy=0;" parent="1" source="qEgH979iWxqcsZPiDeU4-1" target="qEgH979iWxqcsZPiDeU4-9" edge="1">
          <mxGeometry relative="1" as="geometry">
            <mxPoint x="419.66666666666674" y="250" as="targetPoint" />
          </mxGeometry>
        </mxCell>
        <mxCell id="qEgH979iWxqcsZPiDeU4-1" value="gateway" style="swimlane;fontStyle=0;childLayout=stackLayout;horizontal=1;startSize=26;fillColor=#dae8fc;horizontalStack=0;resizeParent=1;resizeParentMax=0;resizeLast=0;collapsible=1;marginBottom=0;whiteSpace=wrap;html=1;strokeColor=#6c8ebf;" parent="1" vertex="1">
          <mxGeometry x="350" y="335" width="140" height="156" as="geometry" />
        </mxCell>
        <mxCell id="qEgH979iWxqcsZPiDeU4-2" value="/login [POST]" style="text;strokeColor=none;fillColor=none;align=left;verticalAlign=top;spacingLeft=4;spacingRight=4;overflow=hidden;rotatable=0;points=[[0,0.5],[1,0.5]];portConstraint=eastwest;whiteSpace=wrap;html=1;" parent="qEgH979iWxqcsZPiDeU4-1" vertex="1">
          <mxGeometry y="26" width="140" height="26" as="geometry" />
        </mxCell>
        <mxCell id="qEgH979iWxqcsZPiDeU4-3" value="/validate-token [GET]" style="text;strokeColor=none;fillColor=none;align=left;verticalAlign=top;spacingLeft=4;spacingRight=4;overflow=hidden;rotatable=0;points=[[0,0.5],[1,0.5]];portConstraint=eastwest;whiteSpace=wrap;html=1;" parent="qEgH979iWxqcsZPiDeU4-1" vertex="1">
          <mxGeometry y="52" width="140" height="26" as="geometry" />
        </mxCell>
        <mxCell id="qEgH979iWxqcsZPiDeU4-5" value="/register [POST]" style="text;strokeColor=none;fillColor=none;align=left;verticalAlign=top;spacingLeft=4;spacingRight=4;overflow=hidden;rotatable=0;points=[[0,0.5],[1,0.5]];portConstraint=eastwest;whiteSpace=wrap;html=1;" parent="qEgH979iWxqcsZPiDeU4-1" vertex="1">
          <mxGeometry y="78" width="140" height="26" as="geometry" />
        </mxCell>
        <mxCell id="qEgH979iWxqcsZPiDeU4-4" value="/queue [POST]" style="text;strokeColor=none;fillColor=none;align=left;verticalAlign=top;spacingLeft=4;spacingRight=4;overflow=hidden;rotatable=0;points=[[0,0.5],[1,0.5]];portConstraint=eastwest;whiteSpace=wrap;html=1;" parent="qEgH979iWxqcsZPiDeU4-1" vertex="1">
          <mxGeometry y="104" width="140" height="26" as="geometry" />
        </mxCell>
        <mxCell id="qEgH979iWxqcsZPiDeU4-25" value="/items [GET]" style="text;strokeColor=none;fillColor=none;align=left;verticalAlign=top;spacingLeft=4;spacingRight=4;overflow=hidden;rotatable=0;points=[[0,0.5],[1,0.5]];portConstraint=eastwest;whiteSpace=wrap;html=1;" parent="qEgH979iWxqcsZPiDeU4-1" vertex="1">
          <mxGeometry y="130" width="140" height="26" as="geometry" />
        </mxCell>
        <mxCell id="qEgH979iWxqcsZPiDeU4-6" value="auth" style="swimlane;fontStyle=0;childLayout=stackLayout;horizontal=1;startSize=26;fillColor=#dae8fc;horizontalStack=0;resizeParent=1;resizeParentMax=0;resizeLast=0;collapsible=1;marginBottom=0;whiteSpace=wrap;html=1;strokeColor=#6c8ebf;" parent="1" vertex="1">
          <mxGeometry x="530" y="110" width="140" height="104" as="geometry" />
        </mxCell>
        <mxCell id="qEgH979iWxqcsZPiDeU4-7" value="/login [POST]" style="text;strokeColor=none;fillColor=none;align=left;verticalAlign=top;spacingLeft=4;spacingRight=4;overflow=hidden;rotatable=0;points=[[0,0.5],[1,0.5]];portConstraint=eastwest;whiteSpace=wrap;html=1;" parent="qEgH979iWxqcsZPiDeU4-6" vertex="1">
          <mxGeometry y="26" width="140" height="26" as="geometry" />
        </mxCell>
        <mxCell id="qEgH979iWxqcsZPiDeU4-8" value="/validate [POST]" style="text;strokeColor=none;fillColor=none;align=left;verticalAlign=top;spacingLeft=4;spacingRight=4;overflow=hidden;rotatable=0;points=[[0,0.5],[1,0.5]];portConstraint=eastwest;whiteSpace=wrap;html=1;" parent="qEgH979iWxqcsZPiDeU4-6" vertex="1">
          <mxGeometry y="52" width="140" height="26" as="geometry" />
        </mxCell>
        <mxCell id="qEgH979iWxqcsZPiDeU4-9" value="/register [POST]" style="text;strokeColor=none;fillColor=none;align=left;verticalAlign=top;spacingLeft=4;spacingRight=4;overflow=hidden;rotatable=0;points=[[0,0.5],[1,0.5]];portConstraint=eastwest;whiteSpace=wrap;html=1;" parent="qEgH979iWxqcsZPiDeU4-6" vertex="1">
          <mxGeometry y="78" width="140" height="26" as="geometry" />
        </mxCell>
        <mxCell id="qEgH979iWxqcsZPiDeU4-12" value="MySQL" style="strokeWidth=2;html=1;shape=mxgraph.flowchart.database;whiteSpace=wrap;" parent="1" vertex="1">
          <mxGeometry x="760" y="145" width="60" height="60" as="geometry" />
        </mxCell>
        <mxCell id="qEgH979iWxqcsZPiDeU4-13" style="edgeStyle=orthogonalEdgeStyle;rounded=0;orthogonalLoop=1;jettySize=auto;html=1;exitX=1;exitY=0.5;exitDx=0;exitDy=0;" parent="1" source="qEgH979iWxqcsZPiDeU4-8" target="qEgH979iWxqcsZPiDeU4-12" edge="1">
          <mxGeometry relative="1" as="geometry" />
        </mxCell>
        <mxCell id="qEgH979iWxqcsZPiDeU4-20" style="edgeStyle=orthogonalEdgeStyle;rounded=0;orthogonalLoop=1;jettySize=auto;html=1;exitX=1;exitY=0.51;exitDx=0;exitDy=0;exitPerimeter=0;entryX=0;entryY=0.25;entryDx=0;entryDy=0;" parent="1" source="qEgH979iWxqcsZPiDeU4-14" edge="1" target="qEgH979iWxqcsZPiDeU4-16">
          <mxGeometry relative="1" as="geometry">
            <mxPoint x="930" y="426" as="targetPoint" />
          </mxGeometry>
        </mxCell>
        <mxCell id="qEgH979iWxqcsZPiDeU4-14" value="" style="sketch=0;aspect=fixed;pointerEvents=1;shadow=0;dashed=0;html=1;strokeColor=none;labelPosition=center;verticalLabelPosition=bottom;verticalAlign=top;align=center;fillColor=#00188D;shape=mxgraph.azure.queue_generic" parent="1" vertex="1">
          <mxGeometry x="590" y="390" width="240" height="72" as="geometry" />
        </mxCell>
        <mxCell id="qEgH979iWxqcsZPiDeU4-15" style="edgeStyle=orthogonalEdgeStyle;rounded=0;orthogonalLoop=1;jettySize=auto;html=1;exitX=1;exitY=0.5;exitDx=0;exitDy=0;entryX=0;entryY=0.5;entryDx=0;entryDy=0;entryPerimeter=0;" parent="1" source="qEgH979iWxqcsZPiDeU4-5" target="qEgH979iWxqcsZPiDeU4-14" edge="1">
          <mxGeometry relative="1" as="geometry" />
        </mxCell>
        <mxCell id="qEgH979iWxqcsZPiDeU4-16" value="downloader" style="swimlane;fontStyle=0;childLayout=stackLayout;horizontal=1;startSize=26;fillColor=#e1d5e7;horizontalStack=0;resizeParent=1;resizeParentMax=0;resizeLast=0;collapsible=1;marginBottom=0;whiteSpace=wrap;html=1;strokeColor=#9673a6;" parent="1" vertex="1">
          <mxGeometry x="990" y="404" width="140" height="61" as="geometry" />
        </mxCell>
        <mxCell id="qEgH979iWxqcsZPiDeU4-21" value="&lt;font style=&quot;font-size: 26px;&quot;&gt;rabbitmq&lt;/font&gt;" style="text;html=1;align=center;verticalAlign=middle;resizable=0;points=[];autosize=1;strokeColor=none;fillColor=none;" parent="1" vertex="1">
          <mxGeometry x="625" y="465" width="120" height="40" as="geometry" />
        </mxCell>
        <mxCell id="qEgH979iWxqcsZPiDeU4-22" value="MongoDB" style="strokeWidth=2;html=1;shape=mxgraph.flowchart.database;whiteSpace=wrap;" parent="1" vertex="1">
          <mxGeometry x="660" y="570" width="70" height="70" as="geometry" />
        </mxCell>
        <mxCell id="qEgH979iWxqcsZPiDeU4-23" style="edgeStyle=orthogonalEdgeStyle;rounded=0;orthogonalLoop=1;jettySize=auto;html=1;exitX=1;exitY=0.5;exitDx=0;exitDy=0;entryX=0;entryY=0.5;entryDx=0;entryDy=0;entryPerimeter=0;" parent="1" source="qEgH979iWxqcsZPiDeU4-4" target="qEgH979iWxqcsZPiDeU4-22" edge="1">
          <mxGeometry relative="1" as="geometry" />
        </mxCell>
        <mxCell id="qEgH979iWxqcsZPiDeU4-24" style="edgeStyle=orthogonalEdgeStyle;rounded=0;orthogonalLoop=1;jettySize=auto;html=1;exitX=0;exitY=0.75;exitDx=0;exitDy=0;entryX=1;entryY=0.5;entryDx=0;entryDy=0;entryPerimeter=0;" parent="1" target="qEgH979iWxqcsZPiDeU4-22" edge="1" source="qEgH979iWxqcsZPiDeU4-16">
          <mxGeometry relative="1" as="geometry">
            <mxPoint x="930" y="451.9999999999998" as="sourcePoint" />
          </mxGeometry>
        </mxCell>
        <mxCell id="FwKG8C_lT5YGV7KeEKRU-4" value="" style="group" vertex="1" connectable="0" parent="1">
          <mxGeometry x="560" y="750" width="650" height="410" as="geometry" />
        </mxCell>
        <mxCell id="FwKG8C_lT5YGV7KeEKRU-2" value="" style="swimlane;startSize=0;" vertex="1" parent="FwKG8C_lT5YGV7KeEKRU-4">
          <mxGeometry y="30" width="650" height="380" as="geometry">
            <mxRectangle y="30" width="50" height="40" as="alternateBounds" />
          </mxGeometry>
        </mxCell>
        <mxCell id="FwKG8C_lT5YGV7KeEKRU-6" value="users" style="swimlane;fontStyle=0;childLayout=stackLayout;horizontal=1;startSize=26;horizontalStack=0;resizeParent=1;resizeParentMax=0;resizeLast=0;collapsible=1;marginBottom=0;align=center;fontSize=14;fillColor=#fff2cc;strokeColor=#d6b656;" vertex="1" parent="FwKG8C_lT5YGV7KeEKRU-2">
          <mxGeometry x="20" y="40" width="160" height="86" as="geometry" />
        </mxCell>
        <mxCell id="FwKG8C_lT5YGV7KeEKRU-7" value="email: string" style="text;strokeColor=none;fillColor=none;spacingLeft=4;spacingRight=4;overflow=hidden;rotatable=0;points=[[0,0.5],[1,0.5]];portConstraint=eastwest;fontSize=12;whiteSpace=wrap;html=1;" vertex="1" parent="FwKG8C_lT5YGV7KeEKRU-6">
          <mxGeometry y="26" width="160" height="30" as="geometry" />
        </mxCell>
        <mxCell id="FwKG8C_lT5YGV7KeEKRU-8" value="items: list[string]" style="text;strokeColor=none;fillColor=none;spacingLeft=4;spacingRight=4;overflow=hidden;rotatable=0;points=[[0,0.5],[1,0.5]];portConstraint=eastwest;fontSize=12;whiteSpace=wrap;html=1;" vertex="1" parent="FwKG8C_lT5YGV7KeEKRU-6">
          <mxGeometry y="56" width="160" height="30" as="geometry" />
        </mxCell>
        <mxCell id="FwKG8C_lT5YGV7KeEKRU-10" value="items" style="swimlane;fontStyle=0;childLayout=stackLayout;horizontal=1;startSize=26;horizontalStack=0;resizeParent=1;resizeParentMax=0;resizeLast=0;collapsible=1;marginBottom=0;align=center;fontSize=14;fillColor=#fff2cc;strokeColor=#d6b656;" vertex="1" parent="FwKG8C_lT5YGV7KeEKRU-2">
          <mxGeometry x="220" y="40" width="160" height="266" as="geometry" />
        </mxCell>
        <mxCell id="FwKG8C_lT5YGV7KeEKRU-11" value="url: string" style="text;strokeColor=none;fillColor=none;spacingLeft=4;spacingRight=4;overflow=hidden;rotatable=0;points=[[0,0.5],[1,0.5]];portConstraint=eastwest;fontSize=12;whiteSpace=wrap;html=1;" vertex="1" parent="FwKG8C_lT5YGV7KeEKRU-10">
          <mxGeometry y="26" width="160" height="30" as="geometry" />
        </mxCell>
        <mxCell id="FwKG8C_lT5YGV7KeEKRU-12" value="video_id: string" style="text;strokeColor=none;fillColor=none;spacingLeft=4;spacingRight=4;overflow=hidden;rotatable=0;points=[[0,0.5],[1,0.5]];portConstraint=eastwest;fontSize=12;whiteSpace=wrap;html=1;" vertex="1" parent="FwKG8C_lT5YGV7KeEKRU-10">
          <mxGeometry y="56" width="160" height="30" as="geometry" />
        </mxCell>
        <mxCell id="FwKG8C_lT5YGV7KeEKRU-18" value="audio_file_id: objectId" style="text;strokeColor=none;fillColor=none;spacingLeft=4;spacingRight=4;overflow=hidden;rotatable=0;points=[[0,0.5],[1,0.5]];portConstraint=eastwest;fontSize=12;whiteSpace=wrap;html=1;" vertex="1" parent="FwKG8C_lT5YGV7KeEKRU-10">
          <mxGeometry y="86" width="160" height="30" as="geometry" />
        </mxCell>
        <mxCell id="FwKG8C_lT5YGV7KeEKRU-13" value="progress: int" style="text;strokeColor=none;fillColor=none;spacingLeft=4;spacingRight=4;overflow=hidden;rotatable=0;points=[[0,0.5],[1,0.5]];portConstraint=eastwest;fontSize=12;whiteSpace=wrap;html=1;" vertex="1" parent="FwKG8C_lT5YGV7KeEKRU-10">
          <mxGeometry y="116" width="160" height="30" as="geometry" />
        </mxCell>
        <mxCell id="FwKG8C_lT5YGV7KeEKRU-14" value="state: &lt;font color=&quot;#006600&quot;&gt;State&lt;/font&gt;" style="text;strokeColor=none;fillColor=none;spacingLeft=4;spacingRight=4;overflow=hidden;rotatable=0;points=[[0,0.5],[1,0.5]];portConstraint=eastwest;fontSize=12;whiteSpace=wrap;html=1;" vertex="1" parent="FwKG8C_lT5YGV7KeEKRU-10">
          <mxGeometry y="146" width="160" height="30" as="geometry" />
        </mxCell>
        <mxCell id="FwKG8C_lT5YGV7KeEKRU-15" value="total_size: int" style="text;strokeColor=none;fillColor=none;spacingLeft=4;spacingRight=4;overflow=hidden;rotatable=0;points=[[0,0.5],[1,0.5]];portConstraint=eastwest;fontSize=12;whiteSpace=wrap;html=1;" vertex="1" parent="FwKG8C_lT5YGV7KeEKRU-10">
          <mxGeometry y="176" width="160" height="30" as="geometry" />
        </mxCell>
        <mxCell id="FwKG8C_lT5YGV7KeEKRU-17" value="downloaded_size: int" style="text;strokeColor=none;fillColor=none;spacingLeft=4;spacingRight=4;overflow=hidden;rotatable=0;points=[[0,0.5],[1,0.5]];portConstraint=eastwest;fontSize=12;whiteSpace=wrap;html=1;" vertex="1" parent="FwKG8C_lT5YGV7KeEKRU-10">
          <mxGeometry y="206" width="160" height="30" as="geometry" />
        </mxCell>
        <mxCell id="FwKG8C_lT5YGV7KeEKRU-16" value="error_message: string" style="text;strokeColor=none;fillColor=none;spacingLeft=4;spacingRight=4;overflow=hidden;rotatable=0;points=[[0,0.5],[1,0.5]];portConstraint=eastwest;fontSize=12;whiteSpace=wrap;html=1;" vertex="1" parent="FwKG8C_lT5YGV7KeEKRU-10">
          <mxGeometry y="236" width="160" height="30" as="geometry" />
        </mxCell>
        <mxCell id="FwKG8C_lT5YGV7KeEKRU-19" value="State" style="swimlane;fontStyle=0;childLayout=stackLayout;horizontal=1;startSize=26;horizontalStack=0;resizeParent=1;resizeParentMax=0;resizeLast=0;collapsible=1;marginBottom=0;align=center;fontSize=14;fillColor=#d5e8d4;strokeColor=#82b366;" vertex="1" parent="FwKG8C_lT5YGV7KeEKRU-2">
          <mxGeometry x="460" y="50" width="160" height="146" as="geometry" />
        </mxCell>
        <mxCell id="FwKG8C_lT5YGV7KeEKRU-20" value="QUEUED" style="text;strokeColor=none;fillColor=none;spacingLeft=4;spacingRight=4;overflow=hidden;rotatable=0;points=[[0,0.5],[1,0.5]];portConstraint=eastwest;fontSize=12;whiteSpace=wrap;html=1;" vertex="1" parent="FwKG8C_lT5YGV7KeEKRU-19">
          <mxGeometry y="26" width="160" height="30" as="geometry" />
        </mxCell>
        <mxCell id="FwKG8C_lT5YGV7KeEKRU-21" value="DOWNLOADING" style="text;strokeColor=none;fillColor=none;spacingLeft=4;spacingRight=4;overflow=hidden;rotatable=0;points=[[0,0.5],[1,0.5]];portConstraint=eastwest;fontSize=12;whiteSpace=wrap;html=1;" vertex="1" parent="FwKG8C_lT5YGV7KeEKRU-19">
          <mxGeometry y="56" width="160" height="30" as="geometry" />
        </mxCell>
        <mxCell id="FwKG8C_lT5YGV7KeEKRU-22" value="DOWNLOADED" style="text;strokeColor=none;fillColor=none;spacingLeft=4;spacingRight=4;overflow=hidden;rotatable=0;points=[[0,0.5],[1,0.5]];portConstraint=eastwest;fontSize=12;whiteSpace=wrap;html=1;" vertex="1" parent="FwKG8C_lT5YGV7KeEKRU-19">
          <mxGeometry y="86" width="160" height="30" as="geometry" />
        </mxCell>
        <mxCell id="FwKG8C_lT5YGV7KeEKRU-23" value="FAILED" style="text;strokeColor=none;fillColor=none;spacingLeft=4;spacingRight=4;overflow=hidden;rotatable=0;points=[[0,0.5],[1,0.5]];portConstraint=eastwest;fontSize=12;whiteSpace=wrap;html=1;" vertex="1" parent="FwKG8C_lT5YGV7KeEKRU-19">
          <mxGeometry y="116" width="160" height="30" as="geometry" />
        </mxCell>
        <mxCell id="FwKG8C_lT5YGV7KeEKRU-24" style="edgeStyle=orthogonalEdgeStyle;rounded=0;orthogonalLoop=1;jettySize=auto;html=1;exitX=0;exitY=0.5;exitDx=0;exitDy=0;entryX=1;entryY=0.5;entryDx=0;entryDy=0;" edge="1" parent="FwKG8C_lT5YGV7KeEKRU-2" source="FwKG8C_lT5YGV7KeEKRU-21" target="FwKG8C_lT5YGV7KeEKRU-13">
          <mxGeometry relative="1" as="geometry" />
        </mxCell>
        <mxCell id="FwKG8C_lT5YGV7KeEKRU-28" value="audios" style="swimlane;fontStyle=0;childLayout=stackLayout;horizontal=1;startSize=26;horizontalStack=0;resizeParent=1;resizeParentMax=0;resizeLast=0;collapsible=1;marginBottom=0;align=center;fontSize=14;fillColor=#fff2cc;strokeColor=#d6b656;" vertex="1" parent="FwKG8C_lT5YGV7KeEKRU-2">
          <mxGeometry x="20" y="170" width="160" height="86" as="geometry" />
        </mxCell>
        <mxCell id="FwKG8C_lT5YGV7KeEKRU-29" value="id: objectId" style="text;strokeColor=none;fillColor=none;spacingLeft=4;spacingRight=4;overflow=hidden;rotatable=0;points=[[0,0.5],[1,0.5]];portConstraint=eastwest;fontSize=12;whiteSpace=wrap;html=1;" vertex="1" parent="FwKG8C_lT5YGV7KeEKRU-28">
          <mxGeometry y="26" width="160" height="30" as="geometry" />
        </mxCell>
        <mxCell id="FwKG8C_lT5YGV7KeEKRU-30" value="&lt;i&gt;chunks&lt;/i&gt;" style="text;strokeColor=none;fillColor=none;spacingLeft=4;spacingRight=4;overflow=hidden;rotatable=0;points=[[0,0.5],[1,0.5]];portConstraint=eastwest;fontSize=12;whiteSpace=wrap;html=1;" vertex="1" parent="FwKG8C_lT5YGV7KeEKRU-28">
          <mxGeometry y="56" width="160" height="30" as="geometry" />
        </mxCell>
        <mxCell id="FwKG8C_lT5YGV7KeEKRU-31" style="edgeStyle=orthogonalEdgeStyle;rounded=0;orthogonalLoop=1;jettySize=auto;html=1;exitX=1;exitY=0.5;exitDx=0;exitDy=0;entryX=0;entryY=0.5;entryDx=0;entryDy=0;" edge="1" parent="FwKG8C_lT5YGV7KeEKRU-2" source="FwKG8C_lT5YGV7KeEKRU-29" target="FwKG8C_lT5YGV7KeEKRU-18">
          <mxGeometry relative="1" as="geometry" />
        </mxCell>
        <mxCell id="FwKG8C_lT5YGV7KeEKRU-32" style="edgeStyle=orthogonalEdgeStyle;rounded=0;orthogonalLoop=1;jettySize=auto;html=1;exitX=0;exitY=0.5;exitDx=0;exitDy=0;entryX=1;entryY=0.5;entryDx=0;entryDy=0;" edge="1" parent="FwKG8C_lT5YGV7KeEKRU-2" source="FwKG8C_lT5YGV7KeEKRU-12" target="FwKG8C_lT5YGV7KeEKRU-8">
          <mxGeometry relative="1" as="geometry" />
        </mxCell>
        <mxCell id="FwKG8C_lT5YGV7KeEKRU-37" value="" style="group" vertex="1" connectable="0" parent="FwKG8C_lT5YGV7KeEKRU-2">
          <mxGeometry x="485" y="340" width="135" height="30" as="geometry" />
        </mxCell>
        <mxCell id="FwKG8C_lT5YGV7KeEKRU-33" value="" style="whiteSpace=wrap;html=1;aspect=fixed;fillColor=#d5e8d4;strokeColor=#82b366;fontStyle=0" vertex="1" parent="FwKG8C_lT5YGV7KeEKRU-37">
          <mxGeometry y="2.5" width="25" height="25" as="geometry" />
        </mxCell>
        <mxCell id="FwKG8C_lT5YGV7KeEKRU-34" value="- abstract enum" style="text;html=1;align=center;verticalAlign=middle;resizable=0;points=[];autosize=1;strokeColor=none;fillColor=none;fontStyle=0" vertex="1" parent="FwKG8C_lT5YGV7KeEKRU-37">
          <mxGeometry x="25" width="110" height="30" as="geometry" />
        </mxCell>
        <mxCell id="FwKG8C_lT5YGV7KeEKRU-3" value="MongoDB schema" style="text;html=1;align=center;verticalAlign=middle;resizable=0;points=[];autosize=1;strokeColor=#6c8ebf;fillColor=#dae8fc;" vertex="1" parent="FwKG8C_lT5YGV7KeEKRU-4">
          <mxGeometry width="120" height="30" as="geometry" />
        </mxCell>
        <mxCell id="FwKG8C_lT5YGV7KeEKRU-39" value="Accepts messages" style="text;html=1;align=center;verticalAlign=middle;resizable=0;points=[];autosize=1;strokeColor=none;fillColor=none;fontStyle=2" vertex="1" parent="1">
          <mxGeometry x="850" y="385" width="120" height="30" as="geometry" />
        </mxCell>
        <mxCell id="FwKG8C_lT5YGV7KeEKRU-40" value="Pushes downloaded audio files to DB" style="text;html=1;strokeColor=none;fillColor=none;align=center;verticalAlign=middle;whiteSpace=wrap;rounded=0;fontStyle=2" vertex="1" parent="1">
          <mxGeometry x="870" y="465" width="110" height="30" as="geometry" />
        </mxCell>
        <mxCell id="FwKG8C_lT5YGV7KeEKRU-41" value="Contains users" style="text;html=1;strokeColor=none;fillColor=none;align=center;verticalAlign=middle;whiteSpace=wrap;rounded=0;" vertex="1" parent="1">
          <mxGeometry x="760" y="214" width="60" height="30" as="geometry" />
        </mxCell>
        <mxCell id="FwKG8C_lT5YGV7KeEKRU-42" value="Contains downloaded audio files and information about downloading status and to which user the item belongs" style="text;html=1;strokeColor=none;fillColor=none;align=center;verticalAlign=middle;whiteSpace=wrap;rounded=0;" vertex="1" parent="1">
          <mxGeometry x="625" y="660" width="170" height="30" as="geometry" />
        </mxCell>
      </root>
    </mxGraphModel>
  </diagram>
</mxfile>
